<svg width="63" height="84" viewBox="0 0 63 84" fill="none" xmlns="http://www.w3.org/2000/svg">
<rect x="1" y="37" width="61" height="39" fill="#5696F8" stroke="#2368B7" stroke-width="2"/>
<rect x="7" y="30" width="49" height="53" fill="#5696F8" stroke="#2368B7" stroke-width="2"/>
<line x1="15" y1="77" x2="47" y2="77" stroke="#2368B7" stroke-width="2"/>
<line x1="31" y1="-4.37114e-08" x2="31" y2="78" stroke="#2368B7" stroke-width="2"/>
<path d="M42.6118 4.00003L36.4174 13.7449L47.9539 14.237L42.6118 4.00003ZM20.9422 11.7089L20.607 10.7668L18.7227 11.4371L19.0578 12.3793L20 12.0441L20.9422 11.7089ZM42.2282 12.9922L41.3181 12.578C40.1259 15.1971 37.9165 17.3457 34.9928 18.3858L35.3279 19.328L35.6631 20.2701C39.1181 19.041 41.731 16.4984 43.1384 13.4065L42.2282 12.9922ZM35.3279 19.328L34.9928 18.3858C29.269 20.422 22.9784 17.4326 20.9422 11.7089L20 12.0441L19.0578 12.3793C21.4643 19.1437 28.8987 22.6765 35.6631 20.2701L35.3279 19.328Z" fill="#2368B7"/>
</svg>
