<svg width="41" height="89" viewBox="0 0 41 89" fill="none" xmlns="http://www.w3.org/2000/svg">
<path d="M40 42.9981V73.001L20.5 87.7451L1 73.001V42.9981L20.5 28.2539L40 42.9981Z" fill="#5696F8" stroke="#2368B7" stroke-width="2"/>
<line x1="7" y1="70" x2="35" y2="70" stroke="#2368B7" stroke-width="2"/>
<line x1="21" y1="-4.37114e-08" x2="21" y2="71" stroke="#2368B7" stroke-width="2"/>
<path d="M31.6118 2.00003L25.4174 11.7449L36.9539 12.237L31.6118 2.00003ZM9.94216 9.70891L9.60699 8.76676L7.72267 9.43709L8.05784 10.3793L9 10.0441L9.94216 9.70891ZM31.2282 10.9922L30.3181 10.578C29.1259 13.1971 26.9165 15.3457 23.9928 16.3858L24.3279 17.328L24.6631 18.2701C28.1181 17.041 30.731 14.4984 32.1384 11.4065L31.2282 10.9922ZM24.3279 17.328L23.9928 16.3858C18.269 18.422 11.9784 15.4326 9.94216 9.70891L9 10.0441L8.05784 10.3793C10.4643 17.1437 17.8987 20.6765 24.6631 18.2701L24.3279 17.328Z" fill="#2368B7"/>
</svg>
