<svg width="52" height="88" viewBox="0 0 52 88" fill="none" xmlns="http://www.w3.org/2000/svg">
<rect x="1" y="34" width="50" height="53" fill="#5696F8" stroke="#2368B7" stroke-width="2"/>
<line x1="9" y1="81" x2="45" y2="81" stroke="#2368B7" stroke-width="2"/>
<line x1="26" y1="-4.37114e-08" x2="26" y2="82" stroke="#2368B7" stroke-width="2"/>
<path d="M36.6118 4L30.4174 13.7449L41.9539 14.237L36.6118 4ZM14.9422 11.7089L14.607 10.7667L12.7227 11.4371L13.0578 12.3792L14 12.0441L14.9422 11.7089ZM36.2282 12.9922L35.3181 12.5779C34.1259 15.1971 31.9165 17.3456 28.9928 18.3858L29.3279 19.3279L29.6631 20.2701C33.1181 19.041 35.731 16.4984 37.1384 13.4065L36.2282 12.9922ZM29.3279 19.3279L28.9928 18.3858C23.269 20.422 16.9784 17.4326 14.9422 11.7089L14 12.0441L13.0578 12.3792C15.4643 19.1436 22.8987 22.6765 29.6631 20.2701L29.3279 19.3279Z" fill="#2368B7"/>
</svg>
