<svg width="63" height="115" viewBox="0 0 63 115" fill="none" xmlns="http://www.w3.org/2000/svg">
<rect x="1" y="50" width="61" height="44" fill="#5696F8" stroke="#2368B7" stroke-width="2"/>
<path d="M56 51.7188V93.2803L31.5 113.697L7 93.2803V51.7188L31.5 31.3018L56 51.7188Z" fill="#5696F8" stroke="#2368B7" stroke-width="2"/>
<line x1="20" y1="99" x2="44" y2="99" stroke="#2368B7" stroke-width="2"/>
<line x1="31" y1="-5.33066e-08" x2="31" y2="100" stroke="#2368B7" stroke-width="2"/>
<path d="M42.6118 2L36.4174 11.7449L47.9539 12.237L42.6118 2ZM20.9422 9.70888L20.607 8.76672L18.7227 9.43706L19.0578 10.3792L20 10.0441L20.9422 9.70888ZM42.2282 10.9922L41.3181 10.5779C40.1259 13.1971 37.9165 15.3456 34.9928 16.3858L35.3279 17.3279L35.6631 18.2701C39.1181 17.041 41.731 14.4984 43.1384 11.4065L42.2282 10.9922ZM35.3279 17.3279L34.9928 16.3858C29.269 18.422 22.9784 15.4326 20.9422 9.70888L20 10.0441L19.0578 10.3792C21.4643 17.1436 28.8987 20.6765 35.6631 18.2701L35.3279 17.3279Z" fill="#2368B7"/>
</svg>
