<svg width="54" height="111" viewBox="0 0 54 111" fill="none" xmlns="http://www.w3.org/2000/svg">
<rect x="1" y="55" width="52" height="55" fill="#5696F8" stroke="#2368B7" stroke-width="2"/>
<line x1="10" y1="103" x2="46" y2="103" stroke="#2368B7" stroke-width="2"/>
<line x1="27" y1="-5.54388e-08" x2="27" y2="104" stroke="#2368B7" stroke-width="2"/>
<path d="M38.6118 2L32.4174 11.7449L43.9539 12.237L38.6118 2ZM16.9422 9.70888L16.607 8.76673L14.7227 9.43706L15.0578 10.3792L16 10.0441L16.9422 9.70888ZM38.2282 10.9922L37.3181 10.5779C36.1259 13.1971 33.9165 15.3456 30.9928 16.3858L31.3279 17.3279L31.6631 18.2701C35.1181 17.041 37.731 14.4984 39.1384 11.4065L38.2282 10.9922ZM31.3279 17.3279L30.9928 16.3858C25.269 18.422 18.9784 15.4326 16.9422 9.70888L16 10.0441L15.0578 10.3792C17.4643 17.1436 24.8987 20.6765 31.6631 18.2701L31.3279 17.3279Z" fill="#2368B7"/>
</svg>
