<svg width="63" height="103" viewBox="0 0 63 103" fill="none" xmlns="http://www.w3.org/2000/svg">
<rect x="1" y="45" width="61" height="37" fill="#5696F8" stroke="#2368B7" stroke-width="2"/>
<path d="M55 46.502V83.4971L30.5 101.753L6 83.4971V46.502L30.5 28.2471L55 46.502Z" fill="#5696F8" stroke="#2368B7" stroke-width="2"/>
<line x1="13" y1="85" x2="48" y2="85" stroke="#2368B7" stroke-width="2"/>
<line x1="31" y1="4.37114e-08" x2="31" y2="86" stroke="#2368B7" stroke-width="2"/>
<path d="M42.6118 5L36.4174 14.7449L47.9539 15.237L42.6118 5ZM20.9422 12.7089L20.607 11.7667L18.7227 12.4371L19.0578 13.3792L20 13.0441L20.9422 12.7089ZM42.2282 13.9922L41.3181 13.5779C40.1259 16.1971 37.9165 18.3456 34.9928 19.3858L35.3279 20.3279L35.6631 21.2701C39.1181 20.041 41.731 17.4984 43.1384 14.4065L42.2282 13.9922ZM35.3279 20.3279L34.9928 19.3858C29.269 21.422 22.9784 18.4326 20.9422 12.7089L20 13.0441L19.0578 13.3792C21.4643 20.1436 28.8987 23.6765 35.6631 21.2701L35.3279 20.3279Z" fill="#2368B7"/>
</svg>
