<svg width="63" height="113" viewBox="0 0 63 113" fill="none" xmlns="http://www.w3.org/2000/svg">
<rect x="1" y="51" width="61" height="41" fill="#5696F8" stroke="#2368B7" stroke-width="2"/>
<path d="M56 49.7187V91.2803L31.5 111.697L7 91.2803V49.7187L31.5 29.3018L56 49.7187Z" fill="#5696F8" stroke="#2368B7" stroke-width="2"/>
<line x1="20" y1="97" x2="44" y2="97" stroke="#2368B7" stroke-width="2"/>
<line x1="31" y1="2" x2="31" y2="98" stroke="#2368B7" stroke-width="2"/>
<path d="M42.6118 3L36.4174 12.7449L47.9539 13.237L42.6118 3ZM20.9422 10.7089L20.607 9.76672L18.7227 10.4371L19.0578 11.3792L20 11.0441L20.9422 10.7089ZM42.2282 11.9922L41.3181 11.5779C40.1259 14.1971 37.9165 16.3456 34.9928 17.3858L35.3279 18.3279L35.6631 19.2701C39.1181 18.041 41.731 15.4984 43.1384 12.4065L42.2282 11.9922ZM35.3279 18.3279L34.9928 17.3858C29.269 19.422 22.9784 16.4326 20.9422 10.7089L20 11.0441L19.0578 11.3792C21.4643 18.1436 28.8987 21.6765 35.6631 19.2701L35.3279 18.3279Z" fill="#2368B7"/>
</svg>
